<svg xmlns="http://www.w3.org/2000/svg" xmlns:xlink="http://www.w3.org/1999/xlink" width="500" zoomAndPan="magnify" viewBox="0 0 375 374.999991" height="500" preserveAspectRatio="xMidYMid meet" version="1.0"><path fill="rgb(0%, 0%, 0%)" d="M 187.5 0 C 84.132812 0 0 84.132812 0 187.5 C 0 290.867188 84.132812 375 187.5 375 C 290.867188 375 375 290.867188 375 187.5 C 375 84.132812 290.867188 0 187.5 0 Z M 187.5 31.25 C 273.980469 31.25 343.75 101.019531 343.75 187.5 C 343.75 273.980469 273.980469 343.75 187.5 343.75 C 101.019531 343.75 31.25 273.980469 31.25 187.5 C 31.25 101.019531 101.019531 31.25 187.5 31.25 Z M 156.25 62.5 L 156.25 93.75 L 125 93.75 L 125 281.25 L 156.25 281.25 L 156.25 312.5 L 171.875 312.5 L 171.875 281.25 L 187.5 281.25 L 187.5 312.5 L 203.125 312.5 L 203.125 280.945312 C 222.023438 280.164062 237.066406 275.769531 247.832031 267.394531 C 259.691406 258.160156 265.625 244.589844 265.625 226.652344 C 265.625 216.261719 262.8125 207.125 257.171875 199.21875 C 251.671875 191.5 243.417969 186.460938 232.542969 183.992188 C 244.089844 175.414062 250 162.96875 250 146.484375 L 250 145.109375 C 250 128.03125 243.804688 115.207031 231.414062 106.628906 C 223.863281 101.398438 214.285156 97.960938 203.125 95.917969 L 203.125 62.5 L 187.5 62.5 L 187.5 94.148438 C 184.894531 94.011719 182.445312 93.75 179.6875 93.75 L 171.875 93.75 L 171.875 62.5 Z M 162.660156 125 L 187.5 125 C 193.359375 125 198.664062 126.328125 204.132812 130.25 C 209.601562 134.171875 212.339844 140.21875 212.339844 148.4375 C 212.339844 155.9375 209.644531 162.917969 204.222656 166.839844 C 198.785156 170.746094 193.359375 171.875 187.5 171.875 L 162.660156 171.90625 Z M 162.660156 203.125 L 200.226562 203.125 C 209.851562 203.125 216.90625 205.238281 221.375 209.441406 C 225.84375 213.644531 228.089844 219.722656 228.089844 227.691406 C 228.089844 235.050781 225.464844 240.605469 220.214844 244.355469 C 214.964844 248.121094 207.371094 250 197.386719 250 L 162.660156 250 Z M 162.660156 203.125 " fill-opacity="1" fill-rule="nonzero"/></svg>