<svg xmlns="http://www.w3.org/2000/svg" xmlns:xlink="http://www.w3.org/1999/xlink" width="500" zoomAndPan="magnify" viewBox="0 0 375 374.999991" height="500" preserveAspectRatio="xMidYMid meet" version="1.0"><defs><clipPath id="id1"><path d="M 9 2 L 370.433594 2 L 370.433594 77 L 9 77 Z M 9 2 " clip-rule="nonzero"/></clipPath></defs><path fill="rgb(0%, 0%, 0%)" d="M 102.925781 250.171875 C 106.34375 250.171875 109.113281 247.386719 109.113281 243.980469 L 109.113281 107.804688 C 109.113281 104.390625 106.34375 101.617188 102.925781 101.617188 L 53.425781 101.617188 C 50.011719 101.617188 47.238281 104.390625 47.238281 107.804688 L 47.238281 243.980469 C 47.238281 247.386719 50.011719 250.171875 53.425781 250.171875 Z M 102.925781 250.171875 " fill-opacity="1" fill-rule="nonzero"/><path fill="rgb(0%, 0%, 0%)" d="M 325.683594 250.171875 C 329.085938 250.171875 331.871094 247.386719 331.871094 243.980469 L 331.871094 107.804688 C 331.871094 104.390625 329.085938 101.617188 325.683594 101.617188 L 276.179688 101.617188 C 272.777344 101.617188 269.992188 104.390625 269.992188 107.804688 L 269.992188 243.980469 C 269.992188 247.386719 272.777344 250.171875 276.179688 250.171875 Z M 325.683594 250.171875 " fill-opacity="1" fill-rule="nonzero"/><g clip-path="url(#id1)"><path fill="rgb(0%, 0%, 0%)" d="M 15.976562 76.855469 L 363.898438 76.855469 C 363.984375 76.84375 364.070312 76.84375 364.144531 76.855469 C 367.5625 76.855469 370.332031 74.082031 370.332031 70.667969 C 370.332031 67.609375 368.117188 65.070312 365.210938 64.5625 L 188.03125 2.925781 C 186.683594 2.453125 185.210938 2.46875 183.886719 2.960938 L 13.863281 64.859375 C 11.039062 65.886719 9.355469 68.785156 9.890625 71.757812 C 10.410156 74.703125 12.972656 76.855469 15.976562 76.855469 Z M 15.976562 76.855469 " fill-opacity="1" fill-rule="nonzero"/></g><path fill="rgb(0%, 0%, 0%)" d="M 189.554688 211.707031 C 184.988281 211.707031 174.371094 210.347656 174.371094 197.730469 C 174.371094 194.316406 171.597656 191.542969 168.183594 191.542969 C 164.765625 191.542969 161.996094 194.316406 161.996094 197.730469 C 161.996094 211.535156 170.507812 221.378906 183.726562 223.605469 C 183.539062 224.1875 183.355469 224.78125 183.355469 225.414062 L 183.355469 237.792969 C 183.355469 241.195312 186.125 243.980469 189.542969 243.980469 C 192.957031 243.980469 195.730469 241.195312 195.730469 237.792969 L 195.730469 225.414062 C 195.730469 224.757812 195.542969 224.175781 195.359375 223.605469 C 208.574219 221.378906 217.078125 211.546875 217.078125 197.730469 C 217.078125 181.785156 208.179688 176.835938 195.890625 169.988281 L 189.144531 166.199219 C 176.945312 159.390625 174.355469 157.660156 174.355469 149.316406 C 174.355469 136.179688 185.976562 135.164062 189.542969 135.164062 C 194.007812 135.164062 204.417969 136.539062 204.417969 149.316406 C 204.417969 152.730469 207.203125 155.503906 210.605469 155.503906 C 214.019531 155.503906 216.792969 152.730469 216.792969 149.316406 C 216.792969 135.5625 208.550781 125.742188 195.730469 123.367188 L 195.730469 113.996094 C 195.730469 110.578125 192.957031 107.804688 189.542969 107.804688 C 186.125 107.804688 183.355469 110.578125 183.355469 113.996094 L 183.355469 123.355469 C 170.359375 125.695312 161.980469 135.535156 161.980469 149.316406 C 161.980469 165.210938 170.84375 170.175781 183.117188 177.007812 L 189.875 180.808594 C 202.128906 187.628906 204.714844 189.351562 204.714844 197.730469 C 204.738281 210.320312 194.121094 211.707031 189.554688 211.707031 Z M 189.554688 211.707031 " fill-opacity="1" fill-rule="nonzero"/><path fill="rgb(0%, 0%, 0%)" d="M 34.863281 268.742188 L 34.863281 299.691406 L 344.246094 299.691406 L 344.246094 268.742188 C 344.246094 265.335938 341.460938 262.550781 338.058594 262.550781 L 41.050781 262.550781 C 37.636719 262.550781 34.863281 265.335938 34.863281 268.742188 Z M 34.863281 268.742188 " fill-opacity="1" fill-rule="nonzero"/><path fill="rgb(0%, 0%, 0%)" d="M 362.808594 312.070312 L 16.300781 312.070312 C 12.882812 312.070312 10.113281 314.855469 10.113281 318.261719 L 10.113281 367.777344 C 10.113281 371.183594 12.882812 373.96875 16.300781 373.96875 L 362.808594 373.96875 C 366.210938 373.96875 368.996094 371.183594 368.996094 367.777344 L 368.996094 318.261719 C 368.996094 314.855469 366.210938 312.070312 362.808594 312.070312 Z M 362.808594 312.070312 " fill-opacity="1" fill-rule="nonzero"/></svg>