<svg xmlns="http://www.w3.org/2000/svg" xmlns:xlink="http://www.w3.org/1999/xlink" width="500" zoomAndPan="magnify" viewBox="0 0 375 374.999991" height="500" preserveAspectRatio="xMidYMid meet" version="1.0"><defs><clipPath id="id1"><path d="M 6.09375 131 L 44 131 L 44 169 L 6.09375 169 Z M 6.09375 131 " clip-rule="nonzero"/></clipPath></defs><path fill="rgb(6.269836%, 5.879211%, 5.099487%)" d="M 187.59375 182.8125 L 178.214844 182.8125 C 173.890625 182.8125 170.398438 179.320312 170.398438 175 L 157.890625 175 C 157.890625 185.667969 166.195312 194.335938 176.652344 195.140625 L 176.652344 206.25 L 189.15625 206.25 L 189.15625 195.140625 C 199.613281 194.335938 207.917969 185.667969 207.917969 175 L 207.917969 170.3125 C 207.917969 159.105469 198.804688 150 187.59375 150 L 178.214844 150 C 173.890625 150 170.398438 146.507812 170.398438 142.1875 L 170.398438 137.5 C 170.398438 133.179688 173.890625 129.6875 178.214844 129.6875 L 187.59375 129.6875 C 191.917969 129.6875 195.410156 133.179688 195.410156 137.5 L 207.917969 137.5 C 207.917969 126.832031 199.613281 118.164062 189.15625 117.359375 L 189.15625 106.25 L 176.652344 106.25 L 176.652344 117.359375 C 166.195312 118.164062 157.890625 126.832031 157.890625 137.5 L 157.890625 142.1875 C 157.890625 153.394531 167.003906 162.5 178.214844 162.5 L 187.59375 162.5 C 191.917969 162.5 195.410156 165.992188 195.410156 170.3125 L 195.410156 175 C 195.410156 179.320312 191.917969 182.8125 187.59375 182.8125 " fill-opacity="1" fill-rule="nonzero"/><path fill="rgb(6.269836%, 5.879211%, 5.099487%)" d="M 300.152344 75 C 282.90625 75 268.886719 60.984375 268.886719 43.75 C 268.886719 26.515625 282.90625 12.5 300.152344 12.5 C 317.398438 12.5 331.417969 26.515625 331.417969 43.75 C 331.417969 60.984375 317.398438 75 300.152344 75 Z M 300.152344 0 C 276.019531 0 256.378906 19.628906 256.378906 43.75 C 256.378906 67.871094 276.019531 87.5 300.152344 87.5 C 324.285156 87.5 343.925781 67.871094 343.925781 43.75 C 343.925781 19.628906 324.285156 0 300.152344 0 " fill-opacity="1" fill-rule="nonzero"/><path fill="rgb(6.269836%, 5.879211%, 5.099487%)" d="M 306.40625 25 L 293.898438 25 L 293.898438 37.5 L 281.390625 37.5 L 281.390625 50 L 293.898438 50 L 293.898438 62.5 L 306.40625 62.5 L 306.40625 50 L 318.910156 50 L 318.910156 37.5 L 306.40625 37.5 L 306.40625 25 " fill-opacity="1" fill-rule="nonzero"/><g clip-path="url(#id1)"><path fill="rgb(6.269836%, 5.879211%, 5.099487%)" d="M 31.261719 168.75 L 31.261719 156.25 L 43.769531 156.25 L 43.769531 143.75 L 31.261719 143.75 L 31.261719 131.25 L 18.757812 131.25 L 18.757812 143.75 L 6.25 143.75 L 6.25 156.25 L 18.757812 156.25 L 18.757812 168.75 L 31.261719 168.75 " fill-opacity="1" fill-rule="nonzero"/></g><path fill="rgb(6.269836%, 5.879211%, 5.099487%)" d="M 356.429688 187.5 L 343.925781 187.5 L 343.925781 200 L 331.417969 200 L 331.417969 212.5 L 343.925781 212.5 L 343.925781 225 L 356.429688 225 L 356.429688 212.5 L 368.9375 212.5 L 368.9375 200 L 356.429688 200 L 356.429688 187.5 " fill-opacity="1" fill-rule="nonzero"/><path fill="rgb(6.269836%, 5.879211%, 5.099487%)" d="M 43.769531 200 L 56.277344 200 L 56.277344 187.5 L 43.769531 187.5 L 43.769531 200 " fill-opacity="1" fill-rule="nonzero"/><path fill="rgb(6.269836%, 5.879211%, 5.099487%)" d="M 350.175781 137.5 L 337.671875 137.5 L 337.671875 150 L 350.175781 150 L 350.175781 137.5 " fill-opacity="1" fill-rule="nonzero"/><path fill="rgb(6.269836%, 5.879211%, 5.099487%)" d="M 306.40625 212.5 L 293.898438 212.5 L 293.898438 225 L 306.40625 225 L 306.40625 212.5 " fill-opacity="1" fill-rule="nonzero"/><path fill="rgb(6.269836%, 5.879211%, 5.099487%)" d="M 31.261719 106.25 L 43.769531 106.25 L 43.769531 93.75 L 31.261719 93.75 L 31.261719 106.25 " fill-opacity="1" fill-rule="nonzero"/><path fill="rgb(6.269836%, 5.879211%, 5.099487%)" d="M 342.359375 293.308594 C 344.460938 292.773438 346.613281 293.992188 347.269531 295.996094 C 348.003906 298.121094 346.855469 300.464844 344.683594 301.21875 L 180.875 362.253906 L 126.429688 350.144531 C 125.964844 350.046875 125.527344 350 125.0625 350 L 93.796875 350 L 93.796875 287.5 L 125.0625 287.5 C 126.722656 287.5 128.308594 286.839844 129.484375 285.667969 L 153.957031 261.207031 L 184.808594 242.699219 C 190.230469 239.085938 195.289062 238.597656 197.65625 241.527344 C 199.441406 243.675781 199.613281 247.703125 195.949219 251.5625 L 158.792969 279.957031 C 157.058594 281.273438 156.15625 283.375 156.351562 285.496094 C 156.546875 287.644531 157.84375 289.550781 159.773438 290.503906 L 222.304688 321.753906 C 223.648438 322.4375 225.1875 322.582031 226.628906 322.214844 Z M 81.289062 362.5 L 50.023438 362.5 L 50.023438 275 L 81.289062 275 Z M 89.105469 156.25 C 89.105469 104.539062 131.167969 62.5 182.902344 62.5 C 234.640625 62.5 276.703125 104.539062 276.703125 156.25 C 276.703125 197.460938 249.785156 233.347656 211.3125 245.53125 C 211.386719 240.992188 209.917969 236.765625 207.332031 233.617188 C 201.808594 226.855469 190.550781 223.851562 178.117188 232.152344 L 155.324219 245.800781 C 116.242188 233.789062 89.105469 197.386719 89.105469 156.25 Z M 218.859375 303.660156 C 219.445312 303.660156 220.03125 303.589844 220.59375 303.417969 L 318.082031 275.21875 C 319.765625 274.730469 321.550781 275.074219 322.964844 276.121094 C 324.359375 277.171875 325.164062 278.808594 325.164062 280.566406 C 325.164062 283.128906 323.550781 285.179688 321.0625 285.742188 L 321.0625 285.765625 L 225.847656 309.546875 L 214.070312 303.660156 Z M 282.539062 255.125 C 283.933594 253.710938 285.542969 253.660156 286.398438 253.734375 C 287.230469 253.808594 288.816406 254.199219 289.917969 255.835938 C 291.1875 257.738281 290.941406 260.300781 289.332031 261.914062 L 277.191406 274.046875 L 258.066406 279.566406 Z M 330.488281 266.160156 C 325.921875 262.695312 320.15625 261.621094 314.636719 263.207031 L 300.8125 267.210938 C 304.058594 261.597656 304.035156 254.492188 300.324219 248.925781 C 297.441406 244.578125 292.824219 241.820312 287.621094 241.285156 C 282.492188 240.820312 277.363281 242.601562 273.699219 246.289062 L 233.175781 286.765625 L 217.980469 291.160156 L 189.058594 291.160156 L 174.328125 283.8125 L 203.886719 261.207031 C 204.128906 261.058594 204.324219 260.863281 204.519531 260.667969 C 204.691406 260.496094 204.816406 260.300781 204.984375 260.132812 C 253.914062 249.804688 289.207031 206.492188 289.207031 156.25 C 289.207031 97.65625 241.527344 50 182.902344 50 C 124.28125 50 76.597656 97.65625 76.597656 156.25 C 76.597656 199.707031 103.347656 238.523438 142.867188 254.613281 L 122.472656 275 L 93.796875 275 L 93.796875 262.5 L 37.515625 262.5 L 37.515625 375 L 93.796875 375 L 93.796875 362.5 L 124.378906 362.5 L 179.972656 374.851562 C 180.4375 374.949219 180.875 375 181.339844 375 C 182.074219 375 182.832031 374.878906 183.515625 374.609375 L 348.957031 312.964844 C 357.40625 309.960938 362 300.585938 359.140625 292.066406 C 356.429688 283.863281 347.6875 279.078125 339.332031 281.175781 L 337.574219 281.617188 C 337.597656 281.273438 337.671875 280.933594 337.671875 280.566406 C 337.671875 274.828125 335.058594 269.605469 330.488281 266.160156 " fill-opacity="1" fill-rule="nonzero"/></svg>