<svg xmlns="http://www.w3.org/2000/svg" xmlns:xlink="http://www.w3.org/1999/xlink" width="500" zoomAndPan="magnify" viewBox="0 0 375 374.999991" height="500" preserveAspectRatio="xMidYMid meet" version="1.0"><path fill="rgb(0%, 0%, 0%)" d="M 368.304688 308.035156 L 354.910156 308.035156 L 354.910156 127.230469 C 354.910156 126.574219 354.878906 125.917969 354.8125 125.261719 C 354.75 124.609375 354.652344 123.957031 354.523438 123.3125 C 354.394531 122.667969 354.238281 122.03125 354.046875 121.402344 C 353.855469 120.769531 353.632812 120.152344 353.382812 119.542969 C 353.128906 118.9375 352.847656 118.34375 352.539062 117.761719 C 352.226562 117.183594 351.890625 116.617188 351.523438 116.070312 C 351.160156 115.523438 350.769531 114.996094 350.351562 114.488281 C 349.933594 113.980469 349.492188 113.492188 349.027344 113.027344 C 348.5625 112.5625 348.074219 112.121094 347.566406 111.703125 C 347.058594 111.285156 346.53125 110.894531 345.980469 110.527344 C 345.433594 110.164062 344.871094 109.824219 344.292969 109.515625 C 343.710938 109.203125 343.117188 108.925781 342.507812 108.671875 C 341.902344 108.421875 341.28125 108.199219 340.652344 108.007812 C 340.023438 107.816406 339.386719 107.65625 338.742188 107.527344 C 338.09375 107.402344 337.445312 107.304688 336.789062 107.238281 C 336.136719 107.175781 335.480469 107.144531 334.820312 107.144531 L 310.789062 107.144531 L 360.9375 62.660156 C 362.980469 60.871094 364.824219 58.894531 366.464844 56.730469 C 368.105469 54.566406 369.515625 52.257812 370.6875 49.808594 C 371.859375 47.355469 372.769531 44.8125 373.425781 42.175781 C 374.078125 39.539062 374.460938 36.867188 374.570312 34.152344 C 374.667969 31.878906 374.535156 29.625 374.167969 27.378906 C 373.800781 25.136719 373.207031 22.953125 372.386719 20.832031 C 371.570312 18.710938 370.542969 16.699219 369.308594 14.789062 C 368.070312 12.878906 366.65625 11.117188 365.054688 9.503906 C 363.429688 7.921875 361.660156 6.519531 359.746094 5.296875 C 357.835938 4.074219 355.820312 3.050781 353.703125 2.234375 C 351.585938 1.417969 349.410156 0.824219 347.171875 0.445312 C 344.933594 0.0703125 342.679688 -0.078125 340.414062 0 C 337.699219 0.113281 335.023438 0.496094 332.390625 1.152344 C 329.753906 1.808594 327.210938 2.726562 324.761719 3.898438 C 322.3125 5.074219 320.007812 6.484375 317.84375 8.125 C 315.679688 9.769531 313.707031 11.613281 311.917969 13.660156 L 228.972656 107.144531 L 40.179688 107.144531 C 39.519531 107.144531 38.863281 107.175781 38.210938 107.238281 C 37.554688 107.304688 36.90625 107.402344 36.257812 107.527344 C 35.613281 107.65625 34.976562 107.816406 34.347656 108.007812 C 33.71875 108.199219 33.097656 108.421875 32.492188 108.671875 C 31.882812 108.925781 31.289062 109.203125 30.707031 109.515625 C 30.128906 109.824219 29.566406 110.164062 29.015625 110.527344 C 28.46875 110.894531 27.941406 111.285156 27.433594 111.703125 C 26.925781 112.121094 26.4375 112.5625 25.972656 113.027344 C 25.507812 113.492188 25.066406 113.980469 24.648438 114.488281 C 24.230469 114.996094 23.839844 115.523438 23.476562 116.070312 C 23.109375 116.617188 22.773438 117.183594 22.460938 117.761719 C 22.152344 118.34375 21.871094 118.9375 21.617188 119.542969 C 21.367188 120.152344 21.144531 120.769531 20.953125 121.402344 C 20.761719 122.03125 20.605469 122.667969 20.476562 123.3125 C 20.347656 123.957031 20.25 124.609375 20.1875 125.261719 C 20.121094 125.917969 20.089844 126.574219 20.089844 127.230469 L 20.089844 308.035156 L 6.695312 308.035156 C 6.257812 308.035156 5.820312 308.078125 5.390625 308.164062 C 4.957031 308.25 4.539062 308.378906 4.132812 308.546875 C 3.726562 308.714844 3.339844 308.921875 2.976562 309.164062 C 2.609375 309.410156 2.273438 309.6875 1.960938 309.996094 C 1.652344 310.308594 1.371094 310.644531 1.128906 311.011719 C 0.882812 311.378906 0.679688 311.761719 0.507812 312.167969 C 0.339844 312.574219 0.214844 312.996094 0.128906 313.425781 C 0.0429688 313.855469 0 314.292969 0 314.730469 L 0 341.519531 C 0 342.613281 0.0546875 343.707031 0.164062 344.796875 C 0.273438 345.890625 0.433594 346.972656 0.648438 348.046875 C 0.863281 349.121094 1.132812 350.183594 1.449219 351.234375 C 1.769531 352.28125 2.140625 353.3125 2.558594 354.324219 C 2.980469 355.335938 3.449219 356.328125 3.964844 357.292969 C 4.484375 358.261719 5.046875 359.199219 5.65625 360.109375 C 6.265625 361.019531 6.917969 361.902344 7.613281 362.746094 C 8.308594 363.59375 9.042969 364.40625 9.820312 365.179688 C 10.59375 365.957031 11.40625 366.691406 12.253906 367.386719 C 13.097656 368.082031 13.980469 368.734375 14.890625 369.34375 C 15.800781 369.953125 16.738281 370.515625 17.707031 371.035156 C 18.671875 371.550781 19.664062 372.019531 20.675781 372.441406 C 21.6875 372.859375 22.71875 373.230469 23.765625 373.550781 C 24.816406 373.867188 25.878906 374.136719 26.953125 374.351562 C 28.027344 374.566406 29.109375 374.726562 30.203125 374.835938 C 31.292969 374.945312 32.386719 375 33.480469 375 L 341.519531 375 C 342.613281 375 343.707031 374.945312 344.796875 374.835938 C 345.890625 374.726562 346.972656 374.566406 348.046875 374.351562 C 349.121094 374.136719 350.183594 373.867188 351.234375 373.550781 C 352.28125 373.230469 353.3125 372.859375 354.324219 372.441406 C 355.335938 372.019531 356.328125 371.550781 357.292969 371.035156 C 358.261719 370.515625 359.199219 369.953125 360.109375 369.34375 C 361.019531 368.734375 361.902344 368.082031 362.746094 367.386719 C 363.59375 366.691406 364.40625 365.957031 365.179688 365.179688 C 365.957031 364.40625 366.691406 363.59375 367.386719 362.746094 C 368.082031 361.902344 368.734375 361.019531 369.34375 360.109375 C 369.953125 359.199219 370.515625 358.261719 371.035156 357.292969 C 371.550781 356.328125 372.019531 355.335938 372.441406 354.324219 C 372.859375 353.3125 373.230469 352.28125 373.550781 351.234375 C 373.867188 350.183594 374.136719 349.121094 374.351562 348.046875 C 374.566406 346.972656 374.726562 345.890625 374.835938 344.796875 C 374.945312 343.707031 375 342.613281 375 341.519531 L 375 314.730469 C 375 314.292969 374.957031 313.855469 374.871094 313.425781 C 374.785156 312.996094 374.660156 312.574219 374.488281 312.167969 C 374.320312 311.761719 374.117188 311.378906 373.871094 311.011719 C 373.628906 310.644531 373.347656 310.308594 373.039062 309.996094 C 372.726562 309.6875 372.390625 309.410156 372.023438 309.164062 C 371.660156 308.917969 371.273438 308.714844 370.867188 308.546875 C 370.460938 308.378906 370.042969 308.25 369.609375 308.164062 C 369.179688 308.078125 368.742188 308.035156 368.304688 308.035156 Z M 202.699219 150.214844 L 224.082031 171.589844 C 222.460938 190.726562 215.617188 204.984375 203.738281 213.992188 C 187.089844 226.605469 164.035156 226.554688 151.507812 225.375 C 154.582031 215.074219 156.144531 204.550781 156.195312 193.800781 C 155.949219 183.195312 157.691406 172.929688 161.425781 162.996094 C 167.332031 152.007812 191.757812 150.039062 202.699219 150.214844 Z M 321.9375 22.558594 C 323.121094 21.195312 324.425781 19.960938 325.859375 18.859375 C 327.292969 17.761719 328.824219 16.816406 330.449219 16.027344 C 332.074219 15.242188 333.761719 14.625 335.515625 14.179688 C 337.265625 13.738281 339.042969 13.472656 340.847656 13.394531 C 342.203125 13.339844 343.550781 13.421875 344.890625 13.640625 C 346.230469 13.859375 347.535156 14.207031 348.804688 14.691406 C 350.074219 15.171875 351.28125 15.773438 352.429688 16.496094 C 353.578125 17.222656 354.640625 18.054688 355.621094 18.992188 C 356.570312 19.964844 357.410156 21.023438 358.140625 22.171875 C 358.871094 23.316406 359.476562 24.527344 359.957031 25.796875 C 360.4375 27.070312 360.785156 28.375 361 29.71875 C 361.210938 31.0625 361.285156 32.414062 361.21875 33.769531 C 361.132812 35.570312 360.867188 37.34375 360.421875 39.09375 C 359.976562 40.839844 359.363281 42.523438 358.574219 44.148438 C 357.785156 45.769531 356.84375 47.296875 355.746094 48.726562 C 354.644531 50.15625 353.414062 51.460938 352.050781 52.640625 L 288.714844 108.816406 L 231.261719 159.808594 L 214.753906 143.304688 L 237 118.253906 Z M 33.480469 127.230469 C 33.480469 126.792969 33.523438 126.355469 33.609375 125.925781 C 33.695312 125.496094 33.824219 125.074219 33.992188 124.667969 C 34.160156 124.261719 34.367188 123.878906 34.609375 123.511719 C 34.855469 123.144531 35.132812 122.808594 35.445312 122.496094 C 35.753906 122.1875 36.09375 121.910156 36.457031 121.664062 C 36.824219 121.421875 37.210938 121.214844 37.617188 121.046875 C 38.023438 120.878906 38.441406 120.75 38.871094 120.664062 C 39.304688 120.578125 39.738281 120.535156 40.179688 120.535156 L 217.085938 120.535156 L 202.640625 136.808594 C 191.71875 136.613281 159.785156 137.785156 149.589844 156.628906 C 147.203125 162.394531 145.433594 168.34375 144.285156 174.476562 C 143.136719 180.609375 142.628906 186.792969 142.769531 193.03125 C 142.039062 206.128906 141.292969 219.675781 135.84375 226.378906 C 135.664062 226.601562 135.5 226.832031 135.351562 227.070312 C 135.203125 227.3125 135.066406 227.5625 134.949219 227.820312 C 134.832031 228.078125 134.730469 228.34375 134.648438 228.613281 C 134.5625 228.886719 134.496094 229.160156 134.445312 229.441406 C 134.398438 229.71875 134.367188 230 134.351562 230.285156 C 134.339844 230.570312 134.34375 230.851562 134.367188 231.136719 C 134.390625 231.417969 134.429688 231.699219 134.488281 231.976562 C 134.546875 232.253906 134.621094 232.527344 134.714844 232.792969 C 134.808594 233.0625 134.917969 233.324219 135.042969 233.578125 C 135.171875 233.832031 135.3125 234.078125 135.46875 234.3125 C 135.628906 234.550781 135.800781 234.773438 135.984375 234.988281 C 136.171875 235.203125 136.371094 235.40625 136.582031 235.59375 C 136.792969 235.785156 137.015625 235.957031 137.25 236.121094 C 137.484375 236.28125 137.726562 236.425781 137.980469 236.554688 C 138.230469 236.683594 138.492188 236.796875 138.757812 236.894531 C 139.023438 236.992188 139.296875 237.070312 139.574219 237.132812 C 146.984375 238.628906 154.46875 239.355469 162.027344 239.308594 C 166.425781 239.457031 170.8125 239.257812 175.179688 238.703125 C 179.550781 238.152344 183.847656 237.253906 188.070312 236.015625 C 192.296875 234.777344 196.394531 233.207031 200.371094 231.3125 C 204.34375 229.417969 208.144531 227.222656 211.769531 224.71875 C 226.929688 213.246094 235.492188 195.574219 237.382812 172.285156 L 295.699219 120.535156 L 334.820312 120.535156 C 335.261719 120.535156 335.695312 120.578125 336.128906 120.664062 C 336.558594 120.75 336.976562 120.878906 337.382812 121.046875 C 337.789062 121.214844 338.175781 121.421875 338.542969 121.664062 C 338.90625 121.910156 339.246094 122.1875 339.554688 122.496094 C 339.867188 122.808594 340.144531 123.144531 340.390625 123.511719 C 340.632812 123.878906 340.839844 124.261719 341.007812 124.667969 C 341.175781 125.074219 341.304688 125.496094 341.390625 125.925781 C 341.476562 126.355469 341.519531 126.792969 341.519531 127.230469 L 341.519531 308.035156 L 33.480469 308.035156 Z M 147.320312 321.429688 L 227.679688 321.429688 L 227.679688 328.125 C 227.679688 328.566406 227.636719 329 227.550781 329.429688 C 227.464844 329.863281 227.335938 330.28125 227.167969 330.6875 C 227 331.09375 226.792969 331.480469 226.550781 331.84375 C 226.304688 332.210938 226.027344 332.550781 225.71875 332.859375 C 225.40625 333.171875 225.066406 333.449219 224.703125 333.691406 C 224.335938 333.9375 223.949219 334.144531 223.542969 334.3125 C 223.136719 334.480469 222.71875 334.605469 222.289062 334.691406 C 221.855469 334.777344 221.421875 334.820312 220.980469 334.820312 L 154.019531 334.820312 C 153.578125 334.820312 153.144531 334.777344 152.710938 334.691406 C 152.28125 334.605469 151.863281 334.480469 151.457031 334.3125 C 151.050781 334.144531 150.664062 333.9375 150.296875 333.691406 C 149.933594 333.449219 149.59375 333.171875 149.28125 332.859375 C 148.972656 332.550781 148.695312 332.210938 148.449219 331.84375 C 148.207031 331.480469 148 331.09375 147.832031 330.6875 C 147.664062 330.28125 147.535156 329.863281 147.449219 329.429688 C 147.363281 329 147.320312 328.566406 147.320312 328.125 Z M 361.605469 341.519531 C 361.605469 342.175781 361.574219 342.832031 361.511719 343.488281 C 361.445312 344.140625 361.347656 344.792969 361.222656 345.4375 C 361.09375 346.082031 360.933594 346.71875 360.742188 347.347656 C 360.550781 347.980469 360.328125 348.597656 360.078125 349.207031 C 359.824219 349.8125 359.546875 350.40625 359.234375 350.988281 C 358.925781 351.566406 358.585938 352.132812 358.222656 352.679688 C 357.855469 353.226562 357.464844 353.753906 357.046875 354.261719 C 356.628906 354.769531 356.1875 355.257812 355.722656 355.722656 C 355.257812 356.1875 354.769531 356.628906 354.261719 357.046875 C 353.753906 357.464844 353.226562 357.855469 352.679688 358.222656 C 352.132812 358.585938 351.566406 358.925781 350.988281 359.234375 C 350.40625 359.546875 349.8125 359.824219 349.207031 360.078125 C 348.597656 360.328125 347.980469 360.550781 347.347656 360.742188 C 346.71875 360.933594 346.082031 361.09375 345.4375 361.222656 C 344.792969 361.347656 344.140625 361.445312 343.488281 361.511719 C 342.832031 361.574219 342.175781 361.605469 341.519531 361.605469 L 33.480469 361.605469 C 32.824219 361.605469 32.167969 361.574219 31.511719 361.511719 C 30.859375 361.445312 30.207031 361.347656 29.5625 361.222656 C 28.917969 361.09375 28.28125 360.933594 27.652344 360.742188 C 27.019531 360.550781 26.402344 360.328125 25.792969 360.078125 C 25.1875 359.824219 24.59375 359.546875 24.011719 359.234375 C 23.433594 358.925781 22.867188 358.585938 22.320312 358.222656 C 21.773438 357.855469 21.246094 357.464844 20.738281 357.046875 C 20.230469 356.628906 19.742188 356.1875 19.277344 355.722656 C 18.8125 355.257812 18.371094 354.769531 17.953125 354.261719 C 17.535156 353.753906 17.144531 353.226562 16.777344 352.679688 C 16.414062 352.132812 16.074219 351.566406 15.765625 350.988281 C 15.453125 350.40625 15.175781 349.8125 14.921875 349.207031 C 14.671875 348.597656 14.449219 347.980469 14.257812 347.347656 C 14.066406 346.71875 13.90625 346.082031 13.777344 345.4375 C 13.652344 344.792969 13.554688 344.140625 13.488281 343.488281 C 13.425781 342.832031 13.394531 342.175781 13.394531 341.519531 L 13.394531 321.429688 L 133.929688 321.429688 L 133.929688 328.125 C 133.929688 328.78125 133.960938 329.4375 134.023438 330.09375 C 134.089844 330.75 134.1875 331.398438 134.316406 332.042969 C 134.441406 332.691406 134.601562 333.328125 134.792969 333.957031 C 134.984375 334.585938 135.207031 335.203125 135.457031 335.8125 C 135.710938 336.421875 135.992188 337.015625 136.300781 337.59375 C 136.609375 338.175781 136.949219 338.738281 137.3125 339.285156 C 137.679688 339.832031 138.070312 340.359375 138.488281 340.871094 C 138.90625 341.378906 139.347656 341.863281 139.8125 342.332031 C 140.277344 342.796875 140.765625 343.238281 141.273438 343.652344 C 141.78125 344.070312 142.308594 344.464844 142.855469 344.828125 C 143.402344 345.195312 143.96875 345.53125 144.546875 345.84375 C 145.128906 346.152344 145.722656 346.433594 146.328125 346.683594 C 146.9375 346.9375 147.554688 347.160156 148.1875 347.347656 C 148.816406 347.539062 149.453125 347.699219 150.097656 347.828125 C 150.742188 347.957031 151.394531 348.054688 152.046875 348.117188 C 152.703125 348.183594 153.359375 348.214844 154.019531 348.214844 L 220.980469 348.214844 C 221.640625 348.214844 222.296875 348.183594 222.953125 348.117188 C 223.605469 348.054688 224.257812 347.957031 224.902344 347.828125 C 225.546875 347.699219 226.183594 347.539062 226.8125 347.347656 C 227.441406 347.160156 228.0625 346.9375 228.671875 346.683594 C 229.277344 346.433594 229.871094 346.152344 230.453125 345.84375 C 231.03125 345.53125 231.597656 345.195312 232.144531 344.828125 C 232.691406 344.464844 233.21875 344.070312 233.726562 343.652344 C 234.234375 343.238281 234.722656 342.796875 235.1875 342.332031 C 235.652344 341.863281 236.09375 341.378906 236.511719 340.871094 C 236.929688 340.359375 237.320312 339.832031 237.6875 339.285156 C 238.050781 338.738281 238.390625 338.175781 238.699219 337.59375 C 239.007812 337.015625 239.289062 336.421875 239.542969 335.8125 C 239.792969 335.203125 240.015625 334.585938 240.207031 333.957031 C 240.398438 333.328125 240.558594 332.691406 240.683594 332.042969 C 240.8125 331.398438 240.910156 330.75 240.976562 330.09375 C 241.039062 329.4375 241.070312 328.78125 241.070312 328.125 L 241.070312 321.429688 L 361.605469 321.429688 Z M 361.605469 341.519531 " fill-opacity="1" fill-rule="nonzero"/></svg>