<svg xmlns="http://www.w3.org/2000/svg" xmlns:xlink="http://www.w3.org/1999/xlink" width="500" zoomAndPan="magnify" viewBox="0 0 375 374.999991" height="500" preserveAspectRatio="xMidYMid meet" version="1.0"><defs><clipPath id="id1"><path d="M 0 102 L 375 102 L 375 360.515625 L 0 360.515625 Z M 0 102 " clip-rule="nonzero"/></clipPath></defs><path fill="rgb(0%, 0%, 0%)" d="M 184.867188 287.03125 C 181.648438 286.738281 178.722656 289.082031 178.722656 292.300781 C 178.433594 295.523438 180.773438 298.449219 183.988281 298.449219 C 183.988281 298.449219 185.160156 298.449219 187.207031 298.742188 C 187.207031 298.742188 187.207031 298.742188 187.5 298.742188 C 190.71875 298.742188 193.351562 296.109375 193.351562 293.179688 C 193.351562 289.960938 191.011719 287.324219 187.792969 287.03125 C 186.039062 287.324219 185.160156 287.03125 184.867188 287.03125 Z M 184.867188 287.03125 " fill-opacity="1" fill-rule="nonzero"/><path fill="rgb(0%, 0%, 0%)" d="M 274.378906 268.589844 C 272.625 269.46875 270.867188 270.34375 269.113281 271.222656 C 266.1875 272.6875 265.019531 276.199219 266.1875 279.128906 C 267.066406 281.175781 269.40625 282.347656 271.453125 282.347656 C 272.332031 282.347656 273.207031 282.054688 273.792969 281.761719 C 275.839844 280.882812 277.597656 280.007812 279.644531 278.835938 C 282.570312 277.371094 283.738281 273.859375 281.984375 270.929688 C 280.230469 268.003906 277.304688 266.832031 274.378906 268.589844 Z M 274.378906 268.589844 " fill-opacity="1" fill-rule="nonzero"/><path fill="rgb(0%, 0%, 0%)" d="M 246.882812 279.421875 C 244.835938 280.007812 243.078125 280.59375 241.03125 280.886719 C 237.8125 281.761719 236.058594 284.984375 236.9375 287.910156 C 237.519531 290.546875 239.863281 292.300781 242.496094 292.300781 C 243.078125 292.300781 243.371094 292.300781 243.957031 292.007812 C 246.003906 291.425781 248.050781 290.839844 250.101562 290.253906 C 253.316406 289.375 255.074219 286.15625 253.902344 282.933594 C 253.023438 280.300781 249.808594 278.542969 246.882812 279.421875 Z M 246.882812 279.421875 " fill-opacity="1" fill-rule="nonzero"/><path fill="rgb(0%, 0%, 0%)" d="M 217.628906 285.570312 C 215.582031 285.863281 213.535156 286.15625 211.78125 286.15625 C 208.5625 286.445312 206.222656 289.375 206.515625 292.59375 C 206.804688 295.523438 209.4375 297.863281 212.363281 297.863281 C 212.65625 297.863281 212.65625 297.863281 212.949219 297.863281 C 214.996094 297.570312 217.042969 297.28125 219.386719 297.28125 C 222.601562 296.988281 224.941406 294.058594 224.359375 290.839844 C 223.773438 287.617188 220.847656 285.277344 217.628906 285.570312 Z M 217.628906 285.570312 " fill-opacity="1" fill-rule="nonzero"/><path fill="rgb(0%, 0%, 0%)" d="M 298.660156 251.902344 C 297.195312 253.074219 295.734375 254.535156 294.269531 255.707031 C 291.636719 257.757812 291.34375 261.269531 293.394531 263.90625 C 294.5625 265.367188 296.316406 266.246094 298.074219 266.246094 C 299.242188 266.246094 300.707031 265.953125 301.582031 265.074219 C 303.339844 263.613281 304.800781 262.441406 306.554688 260.976562 C 308.898438 258.929688 309.1875 255.121094 307.140625 252.78125 C 304.800781 250.144531 301 249.851562 298.660156 251.902344 Z M 298.660156 251.902344 " fill-opacity="1" fill-rule="nonzero"/><path fill="rgb(0%, 0%, 0%)" d="M 322.058594 261.855469 C 322.644531 261.855469 322.9375 262.148438 323.523438 262.148438 C 326.15625 262.148438 328.496094 260.390625 329.082031 257.757812 L 336.394531 230.53125 C 336.980469 228.480469 336.394531 226.136719 334.636719 224.675781 C 333.175781 223.210938 330.835938 222.625 328.789062 223.210938 L 300.707031 231.992188 C 297.488281 232.871094 296.027344 236.09375 296.902344 239.3125 C 297.78125 242.53125 301.292969 243.996094 304.214844 243.117188 L 313.578125 240.191406 C 313.871094 241.363281 314.746094 242.242188 315.625 242.824219 C 316.792969 243.703125 317.964844 243.996094 319.136719 243.996094 C 319.71875 243.996094 320.011719 243.996094 320.597656 243.703125 L 317.671875 254.242188 C 317.085938 257.757812 319.136719 260.976562 322.058594 261.855469 Z M 322.058594 261.855469 " fill-opacity="1" fill-rule="nonzero"/><g clip-path="url(#id1)"><path fill="rgb(0%, 0%, 0%)" d="M 357.164062 102.886719 L 318.84375 102.886719 C 319.136719 104.9375 319.136719 106.691406 319.136719 108.742188 C 319.136719 110.789062 318.84375 112.546875 318.84375 114.597656 L 357.164062 114.597656 C 360.378906 114.597656 363.011719 117.230469 363.011719 120.453125 L 363.011719 319.527344 C 363.011719 322.75 360.378906 325.382812 357.164062 325.382812 L 17.835938 325.382812 C 14.621094 325.382812 11.988281 322.75 11.988281 319.527344 L 11.988281 120.453125 C 11.988281 117.230469 14.621094 114.597656 17.835938 114.597656 L 127.53125 114.597656 L 136.308594 102.886719 L 17.835938 102.886719 C 8.183594 102.886719 0.285156 110.789062 0.285156 120.453125 L 0.285156 319.527344 C 0.285156 329.191406 8.183594 337.09375 17.835938 337.09375 L 158.246094 337.09375 L 158.246094 348.804688 L 137.769531 348.804688 C 134.554688 348.804688 131.921875 351.441406 131.921875 354.660156 C 131.921875 357.878906 134.554688 360.515625 137.769531 360.515625 L 237.230469 360.515625 C 240.445312 360.515625 243.078125 357.878906 243.078125 354.660156 C 243.078125 351.441406 240.445312 348.804688 237.230469 348.804688 L 216.753906 348.804688 L 216.753906 337.09375 L 357.164062 337.09375 C 366.816406 337.09375 374.714844 329.191406 374.714844 319.527344 L 374.714844 120.453125 C 374.714844 110.789062 366.816406 102.886719 357.164062 102.886719 Z M 205.050781 337.09375 L 205.050781 348.804688 L 169.949219 348.804688 L 169.949219 337.09375 Z M 205.050781 337.09375 " fill-opacity="1" fill-rule="nonzero"/></g><path fill="rgb(0%, 0%, 0%)" d="M 107.347656 147.972656 C 105.300781 147.972656 103.546875 148.558594 101.5 149.433594 L 42.703125 182.222656 C 37.144531 185.445312 35.097656 192.472656 38.3125 198.035156 L 39.191406 199.203125 L 29.246094 205.058594 C 23.980469 207.988281 22.226562 214.722656 25.148438 219.992188 L 50.890625 264.488281 C 52.941406 268.003906 56.742188 270.050781 60.253906 270.050781 C 62.007812 270.050781 64.054688 269.46875 65.8125 268.589844 L 75.757812 263.027344 C 78.097656 266.832031 81.898438 268.882812 85.996094 268.882812 C 88.042969 268.882812 89.796875 268.296875 91.84375 267.417969 L 100.621094 262.734375 L 140.695312 294.351562 C 142.160156 295.523438 144.207031 296.109375 145.960938 296.109375 C 148.59375 296.109375 150.933594 294.9375 152.691406 292.59375 L 165.269531 276.785156 C 168.195312 272.980469 167.316406 267.417969 163.804688 264.199219 L 136.308594 242.53125 L 150.933594 234.335938 C 155.324219 231.992188 157.371094 227.308594 156.785156 222.625 L 314.746094 201.839844 C 315.039062 201.839844 315.039062 201.839844 315.332031 201.839844 C 319.425781 200.960938 322.644531 198.617188 324.109375 195.105469 C 325.570312 191.59375 325.570312 187.496094 323.523438 183.980469 L 295.734375 133.625 C 303.046875 127.769531 307.726562 118.695312 307.726562 108.742188 C 307.726562 90.882812 293.394531 76.539062 275.550781 76.539062 C 272.039062 76.539062 268.527344 77.125 265.3125 78.292969 L 233.71875 21.5 C 231.671875 17.691406 228.453125 15.351562 224.648438 15.058594 C 220.847656 14.765625 217.042969 16.523438 214.410156 20.035156 L 114.953125 150.605469 C 112.613281 148.851562 109.980469 147.972656 107.347656 147.972656 Z M 207.097656 49.019531 L 289.003906 193.640625 L 151.519531 211.792969 L 121.683594 160.851562 Z M 60.835938 257.757812 L 35.679688 214.722656 L 45.042969 209.453125 L 70.199219 252.78125 Z M 154.152344 271.808594 L 145.375 282.933594 L 111.738281 256 L 125.191406 248.679688 Z M 86.289062 256.878906 C 85.996094 256.878906 85.996094 256.585938 86.289062 256.878906 L 62.300781 215.890625 L 76.632812 207.988281 C 79.558594 206.523438 80.4375 203.011719 78.972656 200.082031 C 77.511719 197.15625 74 196.277344 71.074219 197.742188 L 56.449219 205.644531 L 48.550781 192.179688 L 107.347656 159.683594 C 107.347656 159.683594 107.640625 159.683594 107.640625 159.683594 L 145.085938 224.089844 Z M 275.257812 88.25 C 286.664062 88.25 295.734375 97.324219 295.734375 108.742188 C 295.734375 114.304688 293.394531 119.574219 289.882812 123.085938 L 270.867188 88.835938 C 272.332031 88.542969 273.792969 88.25 275.257812 88.25 Z M 223.480469 27.0625 L 312.992188 189.542969 C 313.285156 189.835938 313.285156 190.128906 313.285156 190.128906 C 313.285156 190.128906 312.992188 190.128906 312.699219 190.421875 L 301.292969 191.886719 L 214.703125 38.773438 Z M 223.480469 27.0625 " fill-opacity="1" fill-rule="nonzero"/><path fill="rgb(0%, 0%, 0%)" d="M 291.34375 67.460938 C 291.929688 67.460938 292.222656 67.753906 292.808594 67.753906 C 295.441406 67.753906 297.78125 66 298.367188 63.363281 L 304.214844 39.941406 C 305.09375 36.722656 303.046875 33.503906 299.828125 32.917969 C 296.609375 32.039062 293.394531 34.085938 292.808594 37.308594 L 286.957031 60.730469 C 286.371094 63.65625 288.128906 66.878906 291.34375 67.460938 Z M 291.34375 67.460938 " fill-opacity="1" fill-rule="nonzero"/><path fill="rgb(0%, 0%, 0%)" d="M 345.460938 149.726562 C 347.507812 149.726562 349.558594 148.558594 350.726562 146.507812 C 352.191406 143.582031 351.019531 140.066406 348.09375 138.601562 L 324.691406 126.894531 C 321.769531 125.429688 318.257812 126.601562 316.792969 129.527344 C 315.332031 132.457031 316.503906 135.96875 319.425781 137.433594 L 342.828125 149.144531 C 343.707031 149.433594 344.585938 149.726562 345.460938 149.726562 Z M 345.460938 149.726562 " fill-opacity="1" fill-rule="nonzero"/><path fill="rgb(0%, 0%, 0%)" d="M 319.136719 91.175781 C 320.304688 91.175781 321.476562 90.882812 322.644531 90.003906 L 346.046875 72.4375 C 348.679688 70.390625 349.265625 66.878906 347.21875 64.242188 C 345.167969 61.605469 341.660156 61.023438 339.027344 63.070312 L 315.625 80.636719 C 312.992188 82.6875 312.40625 86.199219 314.453125 88.835938 C 315.625 90.296875 317.378906 91.175781 319.136719 91.175781 Z M 319.136719 91.175781 " fill-opacity="1" fill-rule="nonzero"/></svg>