<svg xmlns="http://www.w3.org/2000/svg" xmlns:xlink="http://www.w3.org/1999/xlink" width="500" zoomAndPan="magnify" viewBox="0 0 375 374.999991" height="500" preserveAspectRatio="xMidYMid meet" version="1.0"><defs><clipPath id="id1"><path d="M 162 36 L 350.109375 36 L 350.109375 300 L 162 300 Z M 162 36 " clip-rule="nonzero"/></clipPath></defs><g clip-path="url(#id1)"><path fill="rgb(10.978699%, 9.799194%, 10.198975%)" d="M 227.324219 36.183594 L 208.546875 194.839844 C 206.539062 194.511719 204.480469 194.363281 202.339844 194.421875 C 198.132812 194.515625 193.835938 195.347656 189.589844 196.890625 C 171.515625 203.417969 159.71875 220.523438 162.726562 235.828125 C 165.007812 247.515625 175.621094 255.363281 189.125 255.363281 C 189.414062 255.363281 189.699219 255.363281 189.976562 255.359375 C 194.1875 255.257812 198.488281 254.425781 202.75 252.886719 C 217.3125 247.621094 228.285156 235.207031 230.066406 221.878906 L 244.878906 96.5625 L 320.726562 136.933594 L 308.699219 238.753906 C 306.742188 238.453125 304.671875 238.316406 302.671875 238.371094 C 298.46875 238.46875 294.179688 239.292969 289.925781 240.828125 C 271.871094 247.359375 260.066406 264.464844 263.0625 279.792969 C 265.355469 291.476562 275.964844 299.320312 289.46875 299.320312 C 289.75 299.320312 290.03125 299.316406 290.320312 299.308594 C 294.53125 299.210938 298.828125 298.378906 303.09375 296.832031 C 317.632812 291.578125 328.527344 279.222656 330.207031 266.035156 L 350.007812 98.636719 L 227.324219 36.183594 " fill-opacity="1" fill-rule="nonzero"/></g><path fill="rgb(10.978699%, 9.799194%, 10.198975%)" d="M 120.351562 165.265625 C 117.78125 163.238281 115.003906 161.292969 111.835938 159.296875 C 110.410156 158.402344 108.964844 157.546875 107.558594 156.753906 C 105.910156 155.824219 104.417969 155.050781 103.03125 154.347656 C 101.285156 153.476562 99.574219 152.644531 97.886719 151.832031 C 94.335938 150.113281 90.984375 148.503906 88.085938 146.742188 C 84.253906 144.453125 81.449219 141.9375 79.75 139.261719 C 79.261719 138.5 78.238281 136.382812 77.414062 134.683594 L 76.066406 131.9375 C 74.820312 129.382812 73.40625 126.496094 70.566406 122.710938 C 67.734375 118.953125 63.464844 116.796875 58.863281 116.796875 C 57.050781 116.796875 55.253906 117.132812 53.570312 117.78125 C 52.914062 118.027344 52.265625 118.324219 51.617188 118.675781 C 44.957031 122.308594 41.324219 130.242188 42.792969 137.984375 L 76.929688 288.269531 C 73.429688 288.667969 69.890625 289.554688 66.367188 290.902344 C 61.164062 292.898438 56.171875 295.835938 51.539062 299.648438 C 31.851562 315.84375 24.578125 342.324219 34.996094 359.945312 C 40.507812 369.246094 50.234375 374.585938 61.671875 374.585938 C 66.589844 374.585938 71.621094 373.617188 76.625 371.695312 C 81.84375 369.699219 86.839844 366.746094 91.492188 362.929688 C 107.367188 349.84375 115.558594 329.582031 111.855469 312.421875 L 81.75 179.898438 C 83.335938 180.472656 84.890625 181.007812 86.429688 181.539062 C 88.050781 182.101562 89.644531 182.644531 91.058594 183.160156 L 94.773438 184.609375 C 96.203125 185.21875 97.296875 185.703125 98.257812 186.171875 C 100.527344 187.25 102.738281 188.445312 104.863281 189.738281 C 114.078125 195.308594 120.625 202.46875 124.363281 211.109375 C 128.414062 220.160156 129.414062 231.886719 127.179688 244.183594 C 126.355469 248.882812 129.035156 253.445312 133.421875 254.800781 C 135.304688 255.375 137.332031 255.316406 139.25 254.589844 C 142.019531 253.527344 144.09375 251.234375 144.949219 248.34375 C 149.835938 232.101562 150.144531 215.484375 145.828125 201.589844 C 141.585938 187.699219 132.785156 175.148438 120.351562 165.265625 " fill-opacity="1" fill-rule="nonzero"/><path fill="rgb(10.978699%, 9.799194%, 10.198975%)" d="M 182.796875 34.820312 C 181.875 33.402344 180.847656 31.992188 179.640625 30.5 C 179.089844 29.824219 178.53125 29.164062 177.980469 28.542969 C 177.332031 27.816406 176.734375 27.191406 176.171875 26.617188 C 175.46875 25.90625 174.765625 25.214844 174.089844 24.542969 C 172.644531 23.113281 171.273438 21.765625 170.15625 20.425781 C 168.675781 18.667969 167.726562 16.980469 167.34375 15.394531 C 167.230469 14.945312 167.085938 13.742188 166.96875 12.777344 L 166.761719 11.214844 C 166.582031 9.765625 166.371094 8.121094 165.621094 5.808594 C 164.867188 3.5 163.148438 1.742188 160.898438 0.976562 C 160.015625 0.679688 159.09375 0.542969 158.15625 0.574219 C 157.796875 0.585938 157.4375 0.621094 157.0625 0.691406 C 153.210938 1.34375 150.121094 4.609375 149.554688 8.621094 L 141.203125 87.5 C 139.429688 87.113281 137.566406 86.953125 135.621094 87.023438 C 132.753906 87.128906 129.839844 87.734375 126.949219 88.820312 C 114.664062 93.425781 106.722656 105.113281 108.871094 115.425781 C 110.003906 120.878906 113.855469 125.097656 119.433594 127 C 121.820312 127.8125 124.433594 128.183594 127.191406 128.082031 C 130.0625 127.976562 132.988281 127.367188 135.890625 126.285156 C 145.796875 122.554688 153.152344 114.058594 154.199219 105.074219 L 161.5625 35.523438 C 162.238281 36.0625 162.90625 36.582031 163.566406 37.097656 C 164.269531 37.644531 164.949219 38.171875 165.550781 38.664062 L 167.121094 39.984375 C 167.714844 40.519531 168.167969 40.933594 168.558594 41.320312 C 169.488281 42.222656 170.367188 43.171875 171.1875 44.15625 C 174.742188 48.40625 176.746094 52.980469 177.132812 57.816406 C 177.597656 62.894531 176.136719 68.777344 173 74.390625 C 171.824219 76.542969 172.367188 79.210938 174.277344 80.597656 C 175.101562 81.195312 176.101562 81.507812 177.15625 81.472656 C 178.683594 81.414062 180.074219 80.640625 180.96875 79.375 C 186.046875 72.277344 188.957031 64.238281 189.167969 56.753906 C 189.40625 49.28125 187.207031 41.707031 182.796875 34.820312 " fill-opacity="1" fill-rule="nonzero"/></svg>